<?xml version="1.0" standalone="no"?>
<!DOCTYPE svg PUBLIC "-//W3C//DTD SVG 20010904//EN"
 "http://www.w3.org/TR/2001/REC-SVG-20010904/DTD/svg10.dtd">
<svg version="1.0" xmlns="http://www.w3.org/2000/svg"
 width="700.000000pt" height="700.000000pt" viewBox="0 0 700.000000 700.000000"
 preserveAspectRatio="xMidYMid meet">

<g transform="translate(0.000000,700.000000) scale(0.100000,-0.100000)"
fill="#000000" stroke="none">
<path d="M1919 6801 c-77 -24 -151 -94 -179 -169 -19 -51 -20 -79 -20 -851 0
-911 -5 -858 84 -946 74 -73 118 -85 317 -85 l159 0 0 -95 0 -95 -644 -2 -644
-3 -39 -31 c-62 -50 -75 -81 -80 -197 -12 -235 49 -326 220 -327 l67 0 0
-1297 0 -1298 24 -50 c29 -64 77 -112 141 -141 l50 -24 2125 0 2125 0 50 24
c64 29 112 77 141 141 l24 50 0 1298 0 1297 68 0 c169 1 231 93 219 322 -6
113 -23 157 -80 202 l-39 31 -644 3 -644 2 0 94 0 94 178 4 c170 3 179 4 228
30 29 15 68 46 87 69 70 81 67 45 67 930 0 772 -1 800 -20 851 -21 58 -81 123
-140 154 -34 18 -96 19 -1605 21 -863 1 -1582 -2 -1596 -6z m3146 -206 l25
-24 0 -789 0 -789 -26 -27 -27 -26 -1537 0 -1537 0 -27 26 -26 27 0 789 0 789
25 24 24 25 1541 0 1541 0 24 -25z m-535 -1940 l0 -95 -1030 0 -1030 0 0 95 0
95 1030 0 1030 0 0 -95z m1130 -839 l0 -185 -395 -3 -395 -3 -27 -28 -28 -27
-3 -868 c-2 -639 1 -874 9 -895 23 -56 33 -57 454 -57 l386 0 -3 -161 -3 -161
-28 -24 -28 -24 -485 0 -484 0 0 1068 c0 710 -4 1080 -11 1105 -20 74 -8 72
-509 72 -413 0 -448 -1 -473 -18 -16 -10 -32 -29 -37 -43 -6 -16 -10 -443 -10
-1105 l0 -1079 -90 0 -90 0 0 1079 c0 662 -4 1089 -10 1105 -5 14 -21 33 -37
43 -25 17 -60 18 -473 18 -501 0 -489 2 -509 -72 -7 -25 -11 -395 -11 -1105
l0 -1068 -484 0 -485 0 -28 24 -28 24 -3 161 -3 161 386 0 c421 0 431 1 454
57 8 21 11 256 9 895 l-3 868 -28 27 -27 28 -395 3 -395 3 0 185 0 184 2160 0
2160 0 0 -184z"/>
<path d="M2663 6422 c-70 -25 -119 -65 -151 -123 l-27 -49 -77 0 c-138 0 -235
-56 -289 -166 -23 -48 -24 -55 -24 -299 0 -241 1 -252 24 -302 26 -59 91 -124
148 -149 21 -9 78 -18 130 -21 88 -5 92 -7 103 -33 17 -42 80 -101 135 -126
43 -21 66 -24 166 -24 104 0 120 3 167 26 111 55 151 132 159 309 l6 125 367
0 367 0 6 -126 c5 -109 10 -134 32 -180 30 -61 80 -108 144 -137 37 -16 68
-20 151 -21 92 0 112 3 160 25 59 28 122 86 140 129 11 26 15 28 103 33 52 3
109 12 130 21 57 25 122 90 148 149 23 50 24 61 24 302 0 243 -1 251 -24 299
-29 59 -77 108 -134 138 -32 17 -64 23 -137 26 l-95 4 -28 49 c-55 99 -159
145 -311 137 -103 -6 -167 -31 -223 -90 -56 -59 -75 -116 -81 -254 l-5 -124
-367 0 -367 0 -6 125 c-8 180 -46 253 -162 313 -68 35 -223 42 -302 14z m226
-187 c50 -26 52 -39 49 -468 l-3 -397 -28 -27 c-26 -26 -33 -28 -113 -28 -82
0 -87 1 -110 28 l-24 28 0 414 0 413 31 26 c26 23 40 26 100 26 42 0 81 -6 98
-15z m1420 -11 l31 -26 0 -413 0 -414 -24 -28 c-23 -27 -28 -28 -111 -28 -85
0 -87 1 -116 33 l-29 32 0 398 c1 425 1 430 51 458 13 7 56 13 96 14 63 0 75
-3 102 -26z m-1839 -444 l0 -280 -54 0 c-131 0 -138 16 -134 296 l3 216 28 24
c23 20 39 24 93 24 l64 0 0 -280z m2217 256 l28 -24 3 -216 c4 -280 -3 -296
-134 -296 l-54 0 0 280 0 280 64 0 c54 0 70 -4 93 -24z"/>
</g>
</svg>
